<?xml version="1.0" encoding="UTF-8" standalone="no"?>
<svg width="48px" height="48px" viewBox="0 0 48 48" version="1.1" xmlns="http://www.w3.org/2000/svg" xmlns:xlink="http://www.w3.org/1999/xlink" xmlns:sketch="http://www.bohemiancoding.com/sketch/ns">
    <!-- Generator: Sketch 3.2.2 (9983) - http://www.bohemiancoding.com/sketch -->
    <title>Artboard 1</title>
    <desc>Created with Sketch.</desc>
    <defs></defs>
    <g id="Page-1" stroke="none" stroke-width="1" fill="none" fill-rule="evenodd" sketch:type="MSPage">
        <g id="Artboard-1" sketch:type="MSArtboardGroup" fill="#FFFFFF">
            <path d="M47.9108741,12.1317032 C47.7415234,11.735975 47.5125149,11.4266141 47.1367679,11.168488 C47.0727802,11.1245725 47.0068682,11.0855364 46.9399938,11.0489401 C46.9996515,11.0060004 47.0439136,10.9459824 47.0689314,10.8810849 C47.1410979,10.8147236 47.0482436,10.6995672 47.0136037,10.6068565 C47.5048172,10.581971 47.4980816,9.94568302 46.9871426,9.94568302 C46.9871426,9.94568302 46.7855575,10.1062189 46.7812275,10.2682186 C46.7196454,10.2199114 46.7215698,10.1823392 46.6364133,10.1589176 C46.4343471,10.1042671 46.2572985,10.1452549 46.0807311,10.2447969 C45.8599015,10.3692244 45.8791459,10.6346697 46.036469,10.7737357 C45.5837443,10.7234768 45.123803,10.7937417 44.6965772,10.9752595 C44.4199388,11.0923677 44.2149859,11.2792529 43.9777986,11.447108 C43.9547053,11.4632104 43.9070754,11.4641863 43.8844632,11.4617466 C43.8647377,11.4602827 43.8503044,11.4597947 43.8344278,11.4588188 C43.5693361,11.0006329 43.7237724,10.4999953 43.5361395,10.025707 C43.5226684,9.99008655 43.5067917,9.95544204 43.4899529,9.92177342 C43.5895427,9.86126751 43.656417,9.75928576 43.656417,9.64461729 C43.656417,9.53824399 43.5977216,9.44260561 43.5091973,9.38209969 C43.4408797,9.30158779 43.3364787,9.24840114 43.2176445,9.24840114 C43.1132436,9.24840114 43.0175027,9.29085287 42.9491851,9.3572142 C42.6249168,9.16935309 42.2222276,9.10152791 41.8277173,9.21814818 C41.8094351,9.22351564 41.7901907,9.23132286 41.7719085,9.23815417 C41.7776818,9.21570843 41.7834552,9.19423859 41.7868229,9.16984104 C41.8349339,8.84730548 41.7569941,8.56283009 41.6136233,8.29494503 C41.6227644,8.26176436 41.6314243,8.22809575 41.6396032,8.19540304 C41.6675076,8.20613796 41.6944498,8.21687288 41.721873,8.22516804 C42.1885499,8.37106537 42.7389399,8.27445109 43.0338605,7.89726502 C43.0747548,7.84456632 43.110357,7.78796401 43.1397047,7.72892195 C43.2046546,7.75478335 43.2777833,7.76161466 43.3489876,7.75234359 C43.3307054,7.85481329 43.3629398,7.96460225 43.4495396,8.0426744 C43.5635627,8.14514409 43.7040469,8.21687288 43.8709921,8.17539705 C44.0591062,8.12855376 44.1471494,7.97240946 44.1476305,7.80748205 C44.1481116,7.62547635 43.9802041,7.47469952 43.7795812,7.47469952 C43.7704401,7.47469952 43.7622612,7.47616337 43.7536013,7.47665132 C43.7550446,7.47518747 43.756969,7.47372361 43.7593746,7.47225976 C43.9046698,7.34685637 43.8988965,7.12776641 43.7593746,7.00187507 C43.6155226,6.87110422 43.3836275,6.87647168 43.2388134,7.00187507 C43.2378512,7.00236302 43.2368889,7.00382687 43.2349645,7.00431482 C43.2306345,7.00724253 43.2267856,7.01017023 43.2219745,7.01309794 C43.1700146,6.78815256 43.0454071,6.58028547 42.8452653,6.43341224 C42.4521983,6.14552119 41.8421506,6.04988281 41.367776,6.21920178 C41.2917606,6.24652703 41.2354707,6.28897876 41.1955385,6.33923771 C40.6302341,5.79663627 39.7233414,5.51508859 38.9213308,5.48288383 C38.8948698,5.48141998 38.8669654,5.48288383 38.8385799,5.48239588 C38.6187125,5.18718557 38.3127265,4.90758968 37.9812416,4.68459611 C37.8619262,4.48648803 37.7353943,4.30594619 37.6232956,4.1546814 C37.463567,3.93949504 37.2302286,3.73992311 36.9632125,3.57353185 C37.0089179,3.37883943 36.9406003,3.19439398 36.8063705,3.04068943 C36.803965,2.97774376 36.8005972,2.91479809 36.7986728,2.85234037 C36.7707684,2.00428166 36.1010631,1.57244509 35.4029722,1.54902345 C35.2442059,1.3923912 34.9569831,1.40312612 34.8073578,1.56463788 C34.7799346,1.59489083 34.755879,1.62563174 34.7308613,1.6568606 C34.2805422,1.82422777 33.9139363,2.1848235 33.8311853,2.73620805 C33.6738623,2.71132256 33.5040304,2.70497919 33.3341985,2.71815387 C33.1956388,2.71473821 33.0412024,2.72693699 32.868965,2.75621404 C32.8617483,2.75718994 32.8540506,2.76011765 32.8458717,2.7615815 C32.3257916,2.61519622 31.7450917,2.6303227 31.1518828,2.63227451 C31.0667263,2.08137791 30.7876825,1.55927041 30.2252647,1.27235527 C29.2904676,0.796115163 28.3099651,0.968361841 27.5353778,1.60269805 C27.3203215,1.77738448 27.1163308,1.96085403 26.9171512,2.14627538 C26.5957696,1.83545064 26.1786471,1.61148116 25.684547,1.60660165 C24.5443159,1.59489083 23.7336453,2.51370243 23.880865,3.41445984 C23.4757702,3.00360516 22.8994003,2.72352133 22.312927,2.71034665 C22.4163657,2.60690106 22.4327234,2.43514233 22.356708,2.31754616 C22.286947,2.19653433 22.1406895,2.08137791 21.9790365,2.09699234 C21.9020589,2.1043116 21.8289302,2.11358267 21.7649425,2.15652235 C21.7615747,2.1579862 21.7586881,2.15945006 21.7562825,2.16042596 C21.6720883,2.17750424 21.5994406,2.21946802 21.5455563,2.27655828 C21.4180621,2.34877502 21.3646589,2.51126268 21.4026666,2.63715402 C21.4324954,2.73523215 21.5147652,2.81574405 21.6167606,2.85575603 C21.2948979,3.03629787 21.0365417,3.34858647 20.6338525,3.30320703 C20.5559127,3.29442392 20.4789351,3.28124924 20.4029197,3.26563481 C20.4279374,3.22171923 20.4428518,3.17243618 20.4428518,3.11973748 C20.4428518,2.93773179 20.2749444,2.78695495 20.0743214,2.78695495 C19.9117062,2.78695495 19.7548643,2.80159348 19.6292945,2.90601498 C19.5855135,2.94163539 19.5532791,2.98945459 19.5321103,3.04215329 C19.4431049,3.0211714 19.3550617,3.00311721 19.2626886,2.98945459 C19.2699052,2.98457508 19.2756785,2.97969557 19.2828952,2.97530401 C19.4277094,2.85478013 19.4238605,2.62544319 19.2828952,2.50443136 C19.063509,2.31657026 18.7349107,2.25557639 18.4601968,2.37951593 C18.3177882,2.4444134 18.1994351,2.59762999 18.2100195,2.74596707 C18.2167551,2.84990062 18.2552439,2.945539 18.3250049,3.0240991 C17.5167398,3.18805061 16.7710191,3.67746539 16.4101864,4.35034972 C16.360151,4.30789799 16.2985689,4.27618118 16.2278457,4.25861495 C16.2235157,4.25666315 16.2201479,4.25519929 16.2158179,4.25324749 C16.1797347,4.23763306 16.1436514,4.22299453 16.1056437,4.20981986 C16.0002806,4.14785009 15.8785597,4.11906098 15.7481789,4.16688017 C15.5812336,4.22738609 15.4864549,4.33180759 15.4085151,4.47282541 C15.3185475,4.63531307 15.3584796,4.83195729 15.5403393,4.92857157 C15.6139491,4.96760765 15.7058412,4.97931847 15.7909977,4.9661438 C15.7958088,5.12960736 15.9136808,5.29014321 16.146057,5.29014321 C16.1527925,5.29014321 16.1580847,5.28916731 16.163858,5.28916731 C16.1475003,5.50288982 16.1398025,5.71661232 16.107087,5.92740712 C16.0507971,5.99669616 16.0007617,6.06940084 15.967084,6.15528021 C15.9329252,6.24164752 15.9252274,6.32996664 15.9348496,6.41633395 C15.9131996,6.42511707 15.687559,6.52709881 15.5860447,6.55686382 C15.3401974,6.62908056 15.0496069,6.74228517 14.7912508,6.74716468 C14.6161267,6.44365921 14.5049902,6.05720207 14.3481483,5.72149183 C14.3226495,5.66196182 14.2937828,5.54826925 14.263954,5.54826925 L14.3245739,5.54826925 C14.6454744,5.54826925 14.8119385,5.18279401 14.5848545,4.97785462 C14.4920002,4.89392706 14.3981837,4.82122237 14.2735762,4.77974654 C14.1802408,4.74851768 14.0719911,4.75144539 13.9738446,4.75144539 C13.9050458,4.75144539 13.8405771,4.76949957 13.7852494,4.80024048 C13.5139033,4.46648204 13.1785695,4.1824946 12.778767,4.02683826 C12.7970491,4.01561539 12.8143691,4.00244071 12.8316891,3.98731423 C12.8528579,3.9677962 12.870659,3.94535045 12.8855734,3.92144086 C12.9168456,3.90631438 12.9471555,3.88728429 12.9721732,3.86044699 C13.0303876,3.79701337 13.0866775,3.73016409 13.1015919,3.64477268 C13.1054408,3.61500768 13.1088085,3.59207398 13.1112141,3.56865234 C13.1713528,3.44617665 13.1598062,3.30662269 13.0419342,3.20024939 C12.9307978,3.10021945 12.7316182,3.06557493 12.595464,3.14803864 C12.5348441,3.18561086 12.4766298,3.22562283 12.4193777,3.26661071 C12.4155288,3.26807457 12.412161,3.27051432 12.4092743,3.27295407 C12.3996521,3.27880949 12.3900299,3.28320104 12.3799266,3.2885685 C12.3626067,3.29442392 12.3433623,3.30125523 12.3322967,3.30467088 C12.1879637,3.34858647 12.0460362,3.47398986 12.0623939,3.6257426 C12.0724972,3.72284483 12.0989583,3.83312174 12.185077,3.90192282 C12.0850061,3.89801921 11.9825296,3.90094692 11.8771665,3.91314569 C11.2522044,3.98438653 10.6209879,4.26447036 10.3395384,4.79877663 C10.1138978,5.22817344 10.1490188,5.6809919 10.1976109,6.14015373 C10.224072,6.38949665 10.3563773,6.8374356 9.944547,6.79839953 C9.5327167,6.75936346 9.19353404,6.26067761 8.85964359,6.06793699 C6.7716255,4.86221025 4.50992664,7.88506625 5.92968272,9.40308158 C5.88926946,9.47920193 5.84885621,9.55532227 5.80796185,9.63193057 C5.79449076,9.63144262 5.60252781,9.62900286 5.58857562,9.62949082 C5.52314463,9.63193057 5.21667746,9.64168959 5.21667746,9.65193656 L5.21667746,9.64510524 C5.21667746,9.58118367 5.38217936,9.52116571 5.36245384,9.4655393 C5.42259261,9.34257567 5.48706137,9.19131088 5.37833048,9.09323275 C5.24794962,8.97514862 5.08677772,8.96831731 4.94340689,9.06297979 C4.82024269,9.06493159 4.72498288,9.11714234 4.65666524,9.22351564 C4.5743954,9.35087084 4.61095977,9.53043678 4.72979398,9.63193057 C4.73989729,9.65535221 4.75817948,9.67779796 4.77598056,9.70073165 C4.82409157,9.76318937 4.87941924,9.82027963 4.93859579,9.87444218 C4.93715246,9.87639398 4.93955801,9.87688194 4.93763357,9.87785784 C4.93186025,9.88810481 4.92897359,9.89786383 4.92368137,9.90762284 C4.88134368,9.89152046 4.83563822,9.8822494 4.78704609,9.8822494 C4.75625504,9.8822494 4.7259451,9.8842012 4.6975596,9.88712891 C4.68072074,9.88468915 4.66340078,9.8822494 4.64704303,9.8822494 C4.56621653,9.8822494 4.49068223,9.90762284 4.42910013,9.94909867 C4.4560423,9.8822494 4.45796674,9.80856881 4.43631678,9.74025568 C4.4464201,9.71000272 4.45411786,9.74708699 4.45411786,9.71390633 C4.45363675,9.53336448 4.2857293,9.45187668 4.08462526,9.45187668 L3.94414109,9.45187668 C3.74399926,9.45187668 3.77334698,9.4635875 3.77334698,9.64510524 L3.77334698,9.69487624 C3.77334698,9.79685798 3.71609487,9.88273735 3.79595916,9.95592999 C3.83829685,9.99350221 3.83156131,10.0320503 3.87438012,10.0705985 C4.00235542,10.1867308 4.18325284,10.1964898 4.32566145,10.1023153 C4.31122814,10.1379357 4.28957818,10.1755079 4.29005929,10.2150319 C4.29005929,10.2408933 4.28669152,10.2652909 4.28957818,10.2887125 C4.2905404,10.29408 4.26359824,10.2994474 4.26359824,10.3043269 C4.26744712,10.3272606 4.25445714,10.3497064 4.25445714,10.3711762 L4.25445714,10.373128 C4.25445714,10.3965497 4.29775706,10.4199713 4.31074703,10.443393 C4.33817031,10.4946278 4.3992713,10.5370795 4.44353344,10.5775795 C4.58497982,10.7054226 4.82938378,10.7054226 4.97034906,10.5775795 C5.0194223,10.5336639 5.0526189,10.4785254 5.06801442,10.4219231 C5.07859885,10.4097243 5.09014549,10.3965497 5.09976769,10.3823991 C5.15365203,10.4048448 5.21330969,10.4189954 5.27489179,10.4219231 C5.29606064,10.4224111 5.31530504,10.4209472 5.33503056,10.4180195 C5.13729429,10.6956636 4.9058803,10.9484222 4.60999755,11.1509218 C4.31267147,11.3548853 4.00572319,11.576903 3.74929147,11.8330772 C3.74448037,11.8238061 3.7411126,11.8145351 3.73533928,11.8062399 C3.65932387,11.6998666 3.5327919,11.626674 3.38797774,11.6320414 C3.30667013,11.6349691 3.2248814,11.6515595 3.14597933,11.6686377 C2.9549786,11.7110895 2.8414366,11.8999265 2.88617985,12.0682696 C2.86741655,12.1658597 2.87607653,12.2654017 2.92514977,12.3542088 C2.91456535,12.3542088 2.90398092,12.352257 2.8933965,12.3542088 C2.80727778,12.3639678 2.72212128,12.3712871 2.65043587,12.4195942 C2.64273811,12.4234978 2.6374459,12.4293532 2.62926702,12.4342328 C2.48108509,12.4771724 2.37042976,12.6025758 2.37042976,12.750425 C2.37042976,12.8904669 2.47146289,13.0124546 2.61050373,13.0602738 C2.63407812,13.1129725 2.65765252,13.1646953 2.67785915,13.2188578 C2.69517911,13.2622855 2.71875351,13.3013215 2.74954456,13.3354781 C2.72500794,13.4067189 2.73463015,13.4833272 2.76638342,13.5526163 C2.71249908,13.5789656 2.5239039,13.6082427 2.48252842,13.6428872 C2.37139198,13.734622 2.25159555,13.8527061 2.21070118,13.9785974 C2.18472124,13.903453 2.14382687,13.843435 2.05145372,13.843435 L1.98073053,13.843435 C1.7805887,13.843435 1.61268126,13.9063807 1.61268126,14.0878984 C1.61316237,14.2689282 1.7805887,14.331386 1.98073053,14.331386 L2.05097261,14.331386 C2.19626788,14.331386 2.32087541,14.4192171 2.38053307,14.3079643 C2.38101418,14.3323619 2.38053307,14.4397111 2.38293862,14.4645966 C2.39640971,14.5948795 2.48252842,14.7671261 2.61483372,14.8193369 C2.62445592,14.9242463 2.6566903,15.0476979 2.71490463,15.1448002 C2.73944125,15.2365349 2.77889228,15.3326613 2.83470106,15.4107334 C2.65717141,15.4629442 2.42431409,15.5273537 2.24919,15.5663898 C1.41302054,15.7547388 0.370454823,16.0133528 0.0885242694,16.8589718 C-0.163096344,17.612856 0.205915148,18.2847644 0.645649834,18.8864079 C0.918439295,19.2611542 0.886686024,19.5768584 0.886686024,20.0218697 L0.886686024,20.0228456 C0.886686024,20.0833515 0.705307494,20.1604477 0.568191099,20.2619415 C-0.0736098544,20.7386696 -0.112098667,21.7223787 0.334852671,22.3391486 C0.471969067,22.5294495 0.677403105,22.7080395 0.879950482,22.8554007 C0.830396136,22.8656477 0.794793984,22.8739429 0.746682968,22.8846778 C0.552314463,22.9271295 0.446951338,23.1223099 0.497467905,23.2926048 C0.475336838,23.2935807 0.456573542,23.2960204 0.434442474,23.299924 C0.315608265,23.3218818 0.234300648,23.399954 0.18185964,23.4926646 C0.0726476341,23.5492669 0,23.6512487 0,23.7751882 C0,23.9508506 0.167907446,24.115778 0.368530382,24.1079708 C0.4214525,24.106019 0.474374617,24.0986997 0.523928964,24.0850371 C0.658639809,24.125049 0.802491746,24.1069949 0.909298202,24.0103806 C0.992530259,23.9357241 1.03967906,23.8112966 1.00985023,23.7054112 C1.01658577,23.6663752 1.01562355,23.6273391 1.008888,23.588303 C1.01706688,23.6005018 1.02380242,23.6141644 1.03294351,23.6268511 C1.16524881,23.8137363 1.42985939,23.8410616 1.61075681,23.6941884 C1.55013693,23.7434714 1.61749236,23.6907727 1.63000122,23.6829655 C1.6622356,23.6605198 1.6954322,23.6375861 1.72814769,23.6146524 C1.75990096,23.588303 1.78924868,23.7405437 1.81522863,23.7088269 C1.94801504,23.6453933 2.08320699,23.6024536 2.11784692,23.6024536 L2.135648,23.6024536 C2.50610282,23.6024536 2.79525003,23.2530807 3.00549517,23.0466775 C3.0829539,23.0740027 3.16089375,23.0086173 3.24075804,23.0330149 C3.71946264,23.1798881 4.20730835,23.2394181 4.62876085,23.5004718 C4.7591417,23.5804958 4.88423034,23.6395379 4.99440457,23.7420076 C4.97660349,23.7585979 4.96072686,23.7620135 4.94966132,23.7698208 C4.94533133,23.7727485 4.94292578,23.7688449 4.93955801,23.7703087 C4.93282247,23.7751882 4.92368137,23.777628 4.91309695,23.7844593 C4.85921261,23.8181279 4.80388494,23.8498447 4.74903839,23.8825374 C4.63309084,23.9498747 4.51569996,24.0152601 4.39830908,24.0821094 C3.82242022,24.4095244 3.27347353,24.761825 3.00068407,25.3400468 C2.90253759,25.2522157 2.78081672,25.18927 2.64081367,25.1663363 C2.4435585,25.1336436 2.24486001,25.2136676 2.18808901,25.398601 C2.16547683,25.4737454 2.17750458,25.5581609 2.21455007,25.6323295 C2.19290011,25.6513595 2.17221237,25.6733173 2.15585463,25.7001546 C2.06059481,25.846052 2.10630028,26.0768527 2.2871977,26.1544369 C2.44885071,26.2251898 2.64418144,26.2793524 2.82122998,26.2173826 C2.85394547,26.2061597 2.88666096,26.1905453 2.91793312,26.1744429 C3.035324,26.700454 3.42454212,27.2049953 3.84214574,27.5280188 C3.86331458,27.5450971 3.88592676,27.5607115 3.90805783,27.576326 C3.84743795,27.6978257 3.80702469,27.8261568 3.78441252,27.9574156 C3.7363015,27.943753 3.68578493,27.9349699 3.63382504,27.9378976 C3.45244651,27.9457048 3.27780352,28.013042 3.14213045,28.1203912 C3.03580511,28.2033429 2.94968639,28.3546077 2.96508191,28.4858665 C2.97518523,28.5683302 2.98576965,28.6385951 3.03676733,28.7127637 C3.08824612,28.7869322 3.13443269,28.8230406 3.2104481,28.8737875 C3.32110343,28.9474681 3.49526531,28.9689379 3.62564616,28.9323416 C3.6699083,28.9201428 3.71224599,28.9020886 3.75265925,28.8811067 C3.79692138,28.8728116 3.83974018,28.8601248 3.87967233,28.8406068 C3.93548111,28.9850403 4.00764763,29.1211786 4.09665301,29.2451181 C4.13658515,29.3012325 4.18180951,29.3539312 4.22799608,29.4041901 C4.16930064,29.5022683 4.13225516,29.6179126 4.12744406,29.753563 C4.12311407,29.8550568 4.13129294,29.952647 4.14620736,30.0468215 C4.03891979,30.3864353 4.02304316,30.7533744 4.09087969,31.0690787 C4.09424746,31.0842052 4.10002078,31.0988437 4.10386966,31.115434 C3.987441,31.1286087 3.89939784,31.185699 3.8262691,31.2730422 C3.80510025,31.2925602 3.78489363,31.3140301 3.76805477,31.3398915 C3.67231385,31.4872526 3.71994375,31.7161016 3.89987895,31.7956376 C3.93259445,31.8097882 3.96530994,31.821499 3.99754432,31.8302821 C4.06201308,31.8746857 4.14235848,31.9024989 4.22510942,31.9024989 C4.34057586,31.9024989 4.45989118,31.8439448 4.53109548,31.7575775 C5.00402677,32.1391551 5.74926641,32.259679 6.34632412,32.0596191 C6.79183212,31.9093302 7.16228695,31.6365656 7.43603863,31.2989036 C7.42882198,31.344283 7.43122753,31.3925902 7.44999082,31.443825 C7.6005783,31.8644387 7.94553429,32.2064923 8.45454884,32.248944 C8.59214634,32.2601669 8.72204609,32.2460163 8.84424807,32.2147875 C8.85483249,32.2255224 8.86349247,32.2372332 8.87455801,32.2479681 C8.87840689,32.2523597 8.88321799,32.2562633 8.88899131,32.259191 C8.74898825,32.3123777 8.64025736,32.4431485 8.64987956,32.5836784 C8.66142621,32.7608046 8.7749682,32.9125573 8.94864897,32.9964849 C9.17669519,33.1077377 9.43697578,32.9906295 9.49182234,32.7769069 C9.49711455,32.7500696 9.50625565,32.7242082 9.51732118,32.6978589 C9.5182834,32.6949312 9.52068895,32.6910276 9.52261339,32.6876119 C9.57601662,32.5890458 9.58660104,32.4816966 9.53656559,32.3821546 C9.86901271,32.5636724 10.2226287,32.7090818 10.6017435,32.7798346 C11.4672607,32.9432982 12.4429521,32.6071 13.2011817,33.0638221 C13.8934992,33.4805322 14.831664,33.4253937 15.6312691,33.5249357 C16.5521139,33.6391162 17.4719966,33.7274354 18.4034258,33.7332908 C18.4265191,33.7332908 18.4472069,33.7303631 18.4678946,33.7274354 C18.5304389,33.7547606 18.5949077,33.780622 18.6584142,33.8064834 C19.7827687,34.2705247 20.5496583,34.6501506 21.5604707,35.3123 C21.7201993,35.4172094 22.0512031,35.7568233 22.2272894,35.8768592 C22.230176,35.9812807 22.2330627,36.0861901 22.2359494,36.1906116 C22.2325816,37.3031398 22.3379447,39.6043163 22.3316903,40.9539886 C22.3278414,41.605891 22.2927204,42.2382754 22.2234405,42.8711478 C22.2109316,42.9360453 22.1979417,43.0004548 22.1844706,43.0638884 C22.1098985,43.4049661 22.0127142,43.7567787 21.8828145,44.0998082 C21.8510612,44.0973685 21.8164213,44.10176 21.7808192,44.1149347 C20.77578,44.4833377 19.7158943,44.5804399 18.6940164,44.87809 C18.2831483,44.9981259 17.775096,45.1127944 17.4378377,45.3987336 C16.9956975,45.7739679 16.666137,46.2424008 16.1277748,46.4932075 C16.1186337,46.4975991 16.1143037,46.5039425 16.1061248,46.5093099 C15.805431,46.5366352 15.5052182,46.5664002 15.2045244,46.6025085 C15.137169,46.6108037 15.093869,46.6415446 15.0645213,46.6815566 C14.848984,46.6961951 14.6329655,46.7103457 14.4155037,46.717665 C14.2408607,46.7235204 14.1686942,46.8821044 14.1927497,47.0167789 C12.7239204,47.0772848 11.2560533,47.3788385 9.79877062,47.5759706 C9.69148306,47.592561 9.63374984,47.5120491 9.61739209,48 L35.7041472,48 C35.6868272,47.5120491 35.6199529,47.5745068 35.4809121,47.5452297 C34.7149847,47.383718 33.956274,46.9694476 33.1667722,46.916261 C32.8781061,46.895767 32.5932889,46.8152551 32.3089528,46.7942733 C32.2714262,46.7527974 32.2199474,46.6883879 32.1545164,46.667406 C31.5795898,46.4810088 30.9810887,46.3775632 30.3994266,46.220443 C30.2565368,46.1818948 30.1401082,46.1443226 30.0222362,46.1150456 C29.4824306,45.6466127 28.9854438,45.1142582 28.4013761,44.7019397 C27.8336661,44.300844 27.1572252,44.1383564 26.4831899,44.0402782 C26.4682754,44.0378385 26.4562477,44.0412541 26.4427766,44.0417421 C26.3277913,43.5908754 26.3018113,43.1492798 26.2676525,42.6832867 C26.1834582,41.5414815 25.9881275,40.4099233 25.8741044,39.2705579 C25.8476433,38.2839211 25.8014568,37.2977723 25.8173334,36.3111355 C25.8279178,35.5435887 25.894311,34.7911684 25.9919764,34.0285011 C26.0347952,33.7040137 26.0631807,33.3736709 26.1050373,33.0457679 C26.2142493,32.995021 26.3234613,32.9447621 26.4355599,32.8984067 C26.806977,32.7447022 27.287606,32.7046902 27.6912575,32.6729734 C27.7234918,32.6705336 27.828855,32.6705336 27.828855,32.6680939 C27.828855,32.6680939 27.828855,32.6680939 27.828855,32.6690698 C27.828855,32.8300936 27.7422551,33.0286896 27.9221903,33.124328 C28.0520901,33.1931291 28.3219929,33.1794665 28.4364971,33.0935871 C28.5678402,33.0618703 28.7756798,32.9662319 28.7872264,32.8476598 C28.7761609,32.8408285 28.6818633,32.8344852 28.6847499,32.8286297 C28.6890799,32.8208225 28.6366389,32.8135033 28.6404878,32.805696 C28.6462611,32.7934973 28.6409689,32.7817865 28.6376011,32.7705636 C28.6809011,32.806184 28.732861,32.8281418 28.7886697,32.8422924 C28.7886697,32.8408285 28.7905942,32.8393647 28.7905942,32.8379008 L28.7905942,32.8427803 C28.8324508,32.8530273 28.8757507,32.8613225 28.9204939,32.8603466 C28.9325217,32.8744971 28.9397383,32.8891357 28.9536905,32.9023103 C28.9676427,32.9686717 28.9719727,33.035033 28.9541716,33.1092015 C28.8911462,33.3805022 29.2120467,33.670833 29.506005,33.4937069 C29.6979679,33.3775745 29.881752,33.2604663 30.0400373,33.124328 C30.1314482,33.0984666 30.2209347,33.0662618 30.3041667,33.0228342 C30.2979123,33.0438161 30.2955068,33.0667498 30.2955068,33.0906594 C30.2959879,33.2004483 30.3253356,33.3024301 30.4133787,33.382942 C30.5004597,33.4610141 30.6149639,33.4863876 30.7337981,33.4868755 C30.934421,33.4868755 31.1023285,33.3351228 31.1023285,33.1536051 C31.1023285,33.0472318 31.0436331,32.9525693 30.9546277,32.8920634 C30.8867911,32.8110635 30.7819091,32.7573889 30.663556,32.7573889 C30.654896,32.7573889 30.6462361,32.7603166 30.6375761,32.7612925 C30.6991582,32.6905396 30.7660325,32.6017326 30.8276146,32.5070701 C30.9310533,32.4953593 31.0340109,32.4826725 31.1369684,32.4704738 C31.1538073,32.5153652 31.1720895,32.5597688 31.1999939,32.6017326 C31.3982112,32.915973 31.8138904,33.1677556 32.2194663,33.173611 C32.4605025,33.1775147 32.6750776,33.0852919 32.812194,32.9062139 C32.8145996,32.9018224 32.8150807,32.8979188 32.8179673,32.895479 C33.1773566,32.9345151 33.5535848,32.8696176 33.8946919,32.7115215 C34.1323603,32.6007567 34.3353888,32.4363172 34.4903062,32.2435766 C34.5523694,32.2552874 34.6149138,32.2660223 34.6784203,32.2738295 C34.8833732,32.9925813 35.5930107,33.5937368 36.384918,33.7069414 C36.3464292,33.7664714 36.3271848,33.8362484 36.3271848,33.9152965 C36.3267037,34.0968142 36.4950923,34.2485669 36.6957152,34.2485669 C36.7813528,34.2485669 36.8592927,34.2197778 36.921837,34.1748864 C37.0815656,34.138778 37.2042487,34.0065433 37.2042487,33.8528387 C37.2042487,33.7815979 37.1768254,33.7147486 37.1340066,33.6605861 C37.1518076,33.6552186 37.1700898,33.6493632 37.1874098,33.6439957 C37.3139418,33.78111 37.5111969,33.8518628 37.712301,33.8630857 C37.791203,33.8743086 37.8715484,33.869917 37.9470827,33.8494231 C38.0115515,33.8386882 38.0745769,33.820634 38.1308668,33.7986762 C38.3156131,33.7240197 38.4585028,33.5239598 38.4402207,33.3385385 C38.4180896,33.1194485 38.2963687,32.9447621 38.1371212,32.7876419 C38.2068822,32.6153952 38.249701,32.4324136 38.2747188,32.249432 C38.2973309,32.2347935 38.3184998,32.2211308 38.3406308,32.2060044 C38.5431782,32.3850823 38.9006431,32.4738894 39.1743948,32.3723956 C39.4250531,32.3777631 39.6834093,32.3309198 39.87441,32.2050285 C40.162595,32.0157035 40.3189558,31.7897822 40.3454169,31.463343 C40.3598502,31.2808494 40.2770992,31.026139 40.1611517,30.8778019 C40.0115264,30.6860372 39.7964702,30.5181821 39.5438874,30.4430377 C39.5231996,30.4332786 39.5001063,30.4264473 39.477013,30.4181522 C39.441892,30.3893631 39.4038843,30.3635017 39.363471,30.34008 C39.3562544,30.2258995 39.3346044,30.1161105 39.3086245,30.0087613 C39.3374911,30.0165685 39.3644333,30.0190083 39.3942621,30.0287673 C39.599215,30.0941527 39.7979135,30.1653936 40.009602,30.2244356 C40.3771702,30.3239776 40.8169048,30.3654535 41.2143018,30.300068 C41.6453765,30.231267 42.0673101,30.0404781 42.289583,29.7984545 C42.4319916,29.9019001 42.6456046,29.8965326 42.7764665,29.7784485 C42.7884943,29.7677136 42.7985976,29.7555148 42.8077387,29.743804 C42.8962629,29.6808583 42.9549584,29.5832681 42.9549584,29.4798225 C42.9549584,29.3588107 42.8827919,29.2578049 42.7764665,29.2007146 C42.9318651,29.0523775 43.036266,28.8615887 43.0689815,28.6405469 C43.0920748,28.5985831 43.1132436,28.5546676 43.1267147,28.5073363 C43.2133145,28.2170055 43.0752359,27.8486026 42.7644388,27.7080727 C42.6951589,27.6778197 42.6306901,27.6519583 42.564778,27.6280488 C42.7456755,27.4455551 42.8159176,27.2420796 42.6533023,27.019086 C42.5176293,26.8331767 42.276112,26.6985022 41.9855214,26.5989602 C41.948957,26.4784364 41.9147982,26.3588884 41.8888183,26.243244 C41.8536972,26.0910033 41.821944,25.9416903 41.8642817,25.8465399 C41.8734228,25.8265339 41.9090249,25.7606605 41.9282693,25.7240642 C41.9643526,25.7304076 42.0042847,25.7382148 42.0283402,25.7509015 C42.2077943,25.8392206 42.3785884,25.9387626 42.5479392,26.0426962 C42.887603,26.2500753 43.228229,26.4403762 43.5813638,26.571635 C43.5024618,26.6253096 43.4365497,26.6980143 43.3903631,26.7780382 C43.2970277,26.939062 43.3432143,27.138634 43.5226684,27.2337844 C43.6896136,27.3221035 43.9335365,27.2747723 44.0263907,27.1147244 C44.0283152,27.1103328 44.0316829,27.1069172 44.0340885,27.1035015 C44.1428194,27.0459233 44.2173914,26.9424777 44.2173914,26.820002 C44.2173914,26.7892611 44.2101748,26.7590081 44.2005526,26.7287552 C44.5329997,26.770719 44.8803612,26.7443696 45.2517783,26.6140867 C45.8483549,26.4042678 46.4319415,26.134431 46.8529129,25.6860041 C47.1973878,25.3180891 47.4619984,24.7135179 47.2479043,24.2333741 C47.137249,23.986471 47.010717,23.7737244 46.8023963,23.5809838 C46.7619831,23.5434115 46.6859677,23.4755864 46.6214989,23.4170322 C46.6277533,23.3677492 46.6316022,23.3179782 46.6359322,23.2682072 C46.6388189,23.2662554 46.6412244,23.2643036 46.6450733,23.2623518 C46.7360031,23.200382 46.8346307,23.1428038 46.9178628,23.0725389 C47.8305287,22.30548 47.0434325,21.2549217 46.8678273,20.3307426 C46.9991704,20.0789599 46.9818504,19.7725268 46.7215698,19.561244 C46.7206076,19.3563046 46.7143532,19.1503893 46.6999199,18.9454499 C46.6970332,18.9039741 46.6927032,18.8629862 46.6888543,18.8224863 C46.8192352,18.7248961 46.9472105,18.6248662 47.067488,18.5199567 C47.5226182,18.1217888 47.6082559,17.5767476 47.2440555,17.09514 C47.0217826,16.8004177 46.7470687,16.5325326 46.5541435,16.220244 C46.5007403,16.1490032 46.4608081,16.0719069 46.433866,15.9889553 C46.4333848,15.971389 46.4314604,15.9562625 46.4304982,15.9425999 C46.5233524,15.8572085 46.6171689,15.7747448 46.7056932,15.6854498 C46.9938782,15.3970708 47.1103068,15.027204 47.0814402,14.6422107 C47.0660447,14.4392231 46.9727093,14.2645367 46.9654927,14.102049 C47.0116793,14.1098562 47.0578658,14.1142478 47.1045335,14.1137598 C47.5663993,14.1113201 47.8464054,13.7819532 47.8868186,13.3954961 C47.9344485,12.9543884 48.1013938,12.5757385 47.9108741,12.1317032 L47.9108741,12.1317032 Z M13.4556889,32.398745 C12.7320993,31.9791072 11.9897463,32.2426007 11.1997634,32.1791671 C10.8908907,32.1542816 10.6027057,32.0825528 10.3303973,31.9771554 C10.3337651,31.9698361 10.3385762,31.9644686 10.3405007,31.9571494 C10.3520473,31.9493422 10.3655184,31.941535 10.3761028,31.931288 C10.442496,31.8702941 10.4785793,31.7878304 10.481947,31.7043908 C10.5112948,31.6321741 10.5300581,31.5560537 10.543048,31.4804213 C10.5675847,31.4706623 10.5930835,31.4618792 10.6176201,31.4511443 C10.8668352,31.3481866 11.1487657,31.1832592 11.4350263,31.0646871 C11.3835475,31.006621 11.333512,30.9480669 11.2873255,30.8860971 C11.1069091,30.6460252 11.1304835,30.3034837 11.3633409,30.0936648 C11.4124141,30.12099 11.4581196,30.1502671 11.508155,30.1751526 C11.8843832,30.3669173 12.2760068,30.4815858 12.6729227,30.5567302 C12.792238,30.6870131 12.9519666,30.7894828 13.1319018,30.8538923 C13.1742395,30.8841453 13.2204261,30.9114705 13.2666127,30.9373319 C13.442699,30.9422115 13.6178231,30.9612415 13.7890983,30.996374 C14.2110319,31.0803016 14.5622423,31.334524 14.9153772,31.5741079 C14.744102,31.7414751 14.6401822,31.9766674 14.6642377,32.2347935 C14.6854065,32.4607147 14.7816285,32.6407686 14.9225938,32.7749551 C14.4058815,32.7271359 13.8987914,32.6578469 13.4556889,32.398745 L13.4556889,32.398745 Z M20.9133775,45.6671066 C19.7029044,45.9506061 18.4943556,46.2228827 17.272817,46.4214787 C17.2083482,46.4253824 17.1438794,46.4317257 17.0794107,46.4351414 C17.5340598,46.0589312 17.9449278,45.6373416 18.5520889,45.425083 C19.5489491,45.0757101 20.6131648,44.986903 21.6239772,44.679006 C21.4358632,45.0405776 21.2049303,45.3792156 20.9133775,45.6671066 L20.9133775,45.6671066 Z M28.3364262,45.2528363 C28.5943012,45.4494805 28.8353374,45.6695464 29.0739681,45.8930279 C28.553888,45.7022391 27.9953191,45.6114802 27.4872668,45.3904384 C27.226505,45.2767459 26.9922044,45.1225534 26.7569415,44.9703127 C26.7045005,44.8327105 26.6520595,44.6946204 26.6020241,44.5560423 C27.2370895,44.6653434 27.8091295,44.8502768 28.3364262,45.2528363 L28.3364262,45.2528363 Z M22.5082577,23.0174004 C22.5501143,22.9349367 22.5996686,22.8602802 22.6559585,22.7919671 C22.7136917,22.8671115 22.7805661,22.9364006 22.8493648,22.9925149 C23.0124612,23.1286532 23.2140463,23.2238037 23.4228481,23.2662554 C23.4324703,23.3018758 23.4469036,23.3374962 23.4733647,23.3731167 C23.7437486,23.7420076 24.1839644,23.9054711 24.6078224,23.6195319 C24.6506413,23.5907428 24.6795079,23.5570742 24.7035634,23.5214537 C24.4129728,24.0250191 24.1098734,24.523217 23.8337162,25.0175113 C23.6470455,25.3527336 23.3583794,25.7391907 23.199613,26.1358948 C22.9335591,25.6796607 22.7565106,25.1863423 22.4957488,24.7237648 C22.365368,24.4924761 22.2340249,24.2636271 22.1098985,24.0318504 C22.2513449,23.7317606 22.348048,23.3243216 22.5082577,23.0174004 L22.5082577,23.0174004 Z M16.2264024,32.9149971 C16.5078518,32.7725154 16.6507415,32.5173171 16.6935603,32.2235706 C16.7079936,32.1215888 16.7166536,32.0186312 16.7238703,31.9161615 C16.7888201,31.9200651 16.8547322,31.9190892 16.9240121,31.9122579 C17.0043575,31.9039627 17.0861462,31.8893242 17.1660105,31.8668785 C17.386359,32.0952395 17.5903497,32.3333596 17.757776,32.6027085 C17.8515925,32.7544612 17.9458901,32.905726 18.0522154,33.0482077 C17.4402433,33.0301535 16.8335634,32.9813584 16.2264024,32.9149971 L16.2264024,32.9149971 Z M22.1974605,33.9953204 C22.1984228,34.1016937 22.1989039,34.208067 22.1998661,34.3139524 C22.1892817,34.307609 22.1791784,34.3007777 22.1681128,34.2944343 C21.2751724,33.7791582 20.2306822,33.5400622 19.2598019,33.1682436 C19.0890078,33.0804124 18.9355337,32.9803825 18.8301705,32.8618104 C18.5588244,32.5524495 18.3793703,32.189414 18.1368908,31.861999 C18.0358577,31.7258606 17.9189479,31.5965536 17.7967459,31.4706623 C17.8472625,31.4111323 17.9011468,31.3481866 17.9535878,31.2774337 C18.0825254,31.3530661 18.2254151,31.4096684 18.3827381,31.4418732 C18.6030865,31.4857888 18.8465283,31.4604153 19.0697634,31.383807 C19.0654334,31.4057648 19.0625467,31.4267467 19.0625467,31.4482166 C19.0625467,31.4974996 19.0740934,31.9571494 19.0923756,32.000577 C19.0442646,31.9830108 18.9918236,32.3855703 18.9312037,32.3855703 L19.1688721,32.3855703 C18.7320241,32.3855703 18.6964219,32.6617505 19.0524434,32.736407 C19.2958852,32.6724854 19.3795983,32.4802328 19.3031018,32.2855404 C19.3569862,32.3084741 19.4147194,32.3855703 19.4758204,32.3855703 L19.5941735,32.3855703 C19.8198141,32.3855703 20.0074471,31.9347036 20.0074471,31.7253727 C20.0074471,31.5189695 19.8217386,31.2071688 19.5985035,31.2047291 C19.8361719,30.9675849 19.9391295,30.5796639 19.7548643,30.2380983 C19.7322521,30.1985742 19.6624911,30.0760986 19.5821457,29.9736289 C19.5884002,29.9131229 19.6018712,29.8394424 19.6292945,29.7974786 C19.7120455,29.8843338 19.8039375,29.9516711 19.9030462,30.0126649 C20.2229845,30.2058935 20.5231972,30.2132128 20.77578,30.1102551 C21.3319434,30.4049775 21.8679001,30.7270251 22.2061205,30.9841752 C22.2090072,30.9880788 22.2118939,30.9910065 22.2157427,30.9958861 C22.0526464,31.9942337 22.0584197,32.9945331 22.1974605,33.9953204 L22.1974605,33.9953204 Z M23.3155606,30.1600261 C22.8431104,30.1087913 22.3514158,29.862864 21.819308,29.584244 C21.9564244,29.5198345 22.0656364,29.4085817 22.0964274,29.2504856 C22.0983519,29.2392627 22.098833,29.2290157 22.1002763,29.2177929 C22.1180774,29.1616785 22.1315485,29.1045883 22.1344351,29.0406667 C22.1402084,28.9401488 22.0911352,28.8454863 22.0165631,28.7757093 C22.016082,28.7747334 22.0151198,28.7742455 22.0146387,28.7732696 C22.042062,28.7713178 22.068523,28.7659503 22.0930596,28.7586311 C22.2527882,28.7030046 22.3552647,28.6068783 22.4322423,28.4678123 C22.535681,28.2823909 22.4861266,28.053542 22.2845415,27.943753 C22.142614,27.8671447 21.9501699,27.8793435 21.8197891,27.9701024 C21.6605416,28.0242649 21.5373774,28.1652827 21.5431507,28.3297222 C21.5445941,28.3736378 21.5522918,28.4131618 21.561914,28.451222 C21.4628053,28.4370714 21.3598478,28.450734 21.2636257,28.4824508 C21.1789503,28.3497282 21.0731061,28.2282284 20.9576397,28.1277105 C21.2001192,27.9866927 21.3786111,27.7705304 21.4637676,27.5377778 C21.6095439,27.585597 21.780338,27.5572959 21.8948423,27.4509226 C22.0545708,27.3030734 22.0545708,27.0561703 21.8948423,26.909297 C21.8861823,26.9010019 21.8780034,26.8917308 21.8693434,26.8824597 C21.8505801,26.8326887 21.8217135,26.7863334 21.7764892,26.7453455 C21.6999926,26.6736167 21.5936673,26.6331168 21.4854175,26.6331168 C21.4060343,26.6331168 21.3247267,26.6580023 21.2549657,26.6999661 C21.1577815,26.6184783 21.0317306,26.5506531 20.8715209,26.502346 C20.8128255,26.4847797 20.7541301,26.4716051 20.6973591,26.4594063 C20.5621671,26.2905753 20.3451864,26.1812742 20.103188,26.1661478 C19.792872,26.1476056 19.4748582,26.2227501 19.2001443,26.3647438 C19.2386331,25.9275398 18.9783525,25.4595948 18.5891344,25.2009808 C18.238405,24.9677403 17.7861615,24.8730778 17.3574923,24.9531018 C17.3214091,24.9599331 17.2776281,24.97018 17.2314415,24.9818909 C17.6201785,24.7330359 17.8525547,24.3114463 17.6639595,23.8688748 C17.6139241,23.7512786 17.5432009,23.6424656 17.4580444,23.5443874 C17.5836141,23.6390499 17.7144761,23.7507907 17.8020381,23.7790918 C18.4197836,23.976224 19.1337511,23.846917 19.5633824,23.3765323 C19.7601565,23.160858 19.8227008,22.8744308 19.9035273,22.604106 C19.9078573,22.6080096 19.9126684,22.6104494 19.9165173,22.613865 C19.9704016,22.6563167 20.0228426,22.703648 20.0733592,22.7519551 C20.0266915,22.9705571 19.9742505,23.1935507 19.9819483,23.4082491 C19.9968627,23.8596037 20.4678695,24.2577717 20.9273297,24.3573137 C21.050975,24.384151 21.1741392,24.3826871 21.2929734,24.3617052 C21.6254206,25.1068063 22.0675608,26.2212862 22.3124459,26.6184783 C22.6809763,27.2152423 23.0841466,27.8129822 23.4411303,28.4160895 C23.6326122,28.7381371 23.7538519,29.1899797 23.7355697,29.5705814 C23.7341264,29.6101054 23.7355697,29.6476776 23.7403808,29.6828101 C23.5792089,29.8277315 23.4392059,29.9887553 23.3155606,30.1600261 L23.3155606,30.1600261 Z M25.0552549,28.8044984 C24.9575895,28.6444505 24.6030113,28.2511621 24.4995727,28.0984334 C24.2474709,27.7275907 24.0189436,27.347477 23.771653,26.9746825 C23.8322729,26.9034416 23.8625828,26.8082912 23.8366029,26.6980143 C23.7711719,26.4169545 24.1286367,25.9719433 24.2676776,25.7372389 C24.4432828,25.438125 24.5847292,25.1277882 24.7521555,24.8252586 C24.9494107,24.4680785 25.164948,24.1201695 25.3761554,23.7698208 C25.3795231,23.7751882 25.3819287,23.7805557 25.3852965,23.7854352 C25.8259934,24.3958618 26.6549462,24.4368497 27.2808705,24.0108685 C27.6128365,23.7844593 27.8947671,23.3189541 28.2474208,23.0901051 C28.2912018,23.1452436 28.3301718,23.2047736 28.3652928,23.2652795 C28.2604108,23.4853454 28.2012342,23.7137064 28.195942,23.9313325 C28.0698912,24.0377058 28.2931263,23.9528024 28.0655612,24.383663 C27.9597169,24.5842109 27.3073316,25.5420585 27.204374,25.7440702 C27.1235475,25.7948171 26.4605777,26.6882553 26.3985145,26.7633997 C25.7648924,27.5397296 25.5541661,27.9608313 25.0552549,28.8044984 L25.0552549,28.8044984 Z M28.440346,31.523849 C28.309484,31.642421 28.3056351,31.8327219 28.4162905,31.961053 C27.9419159,31.9722759 27.4694657,31.9971614 26.9970155,32.0679142 C26.7208583,32.1089021 26.4783787,32.1845345 26.2445592,32.2743175 C26.2570681,32.2206429 26.2700581,32.1674562 26.2849725,32.1152455 C26.457691,31.513602 26.7473193,31.0729823 27.2505606,30.6552963 C27.5166145,30.4337666 27.8226005,30.2976283 28.0193746,30.0160806 C28.1781409,29.9599662 28.339794,29.9458157 28.5028903,29.9458157 L28.5091447,29.9458157 C28.5182858,29.9458157 28.593339,29.8667676 28.6592511,29.9160507 C28.6472233,30.0502372 28.6395256,30.1248936 28.6212434,30.2585922 C28.6154701,30.2995801 28.601999,30.300556 28.5822735,30.3259294 C28.5793868,30.3293451 28.576019,30.3757004 28.5726513,30.3786281 C28.5692835,30.3835076 28.5639913,30.4337666 28.5601424,30.4337666 L28.5481147,30.4337666 C28.5072203,30.4337666 28.4672881,30.3761884 28.4268749,30.3844835 C28.3292095,30.4005859 28.2507886,30.4176642 28.1742921,30.4776822 C27.9804047,30.6304108 28.0732589,30.9841752 28.3470106,30.9431874 C28.4389027,30.9290368 28.5255025,30.9007356 28.6087345,30.8743863 C28.5943012,31.0368739 28.6010368,31.1959459 28.6486667,31.344283 C28.65877,31.3769757 28.6606944,31.4033251 28.6732033,31.4330901 C28.5914146,31.4408973 28.5019281,31.4691985 28.440346,31.523849 L28.440346,31.523849 Z M29.9240897,28.7308178 C29.4646295,28.7030046 29.0042071,28.7064203 28.549558,28.7557033 C27.8668627,28.8313357 27.3145482,28.6961733 26.6818883,28.9372211 C26.8396925,28.5239267 27.0143355,28.1150238 27.226505,27.7158799 C27.5401889,27.1244834 27.8216383,26.5169845 28.143501,25.9299795 C28.3373884,25.5757271 28.5437847,25.2204989 28.8305263,24.9238247 C28.9070228,24.9579813 28.9892927,24.9887222 29.0811847,25.0121438 C29.1490212,25.0292221 29.2154144,25.0370293 29.2818077,25.0375173 C29.2399511,25.2468482 29.2673743,25.4527635 29.3703319,25.6591668 C29.2866188,25.7421184 29.1817367,25.8206785 29.0354792,25.8933832 C28.6847499,26.0685576 28.3167007,26.2290934 28.1050122,26.4750207 C27.6691264,26.9820017 28.5293514,27.3665071 29.1547946,27.6163379 C29.4848361,27.7485726 29.9625785,27.8866627 29.9616163,28.1555237 C29.9611352,28.3507041 29.9159108,28.5390531 29.9240897,28.7308178 L29.9240897,28.7308178 Z" id="Shape" sketch:type="MSShapeGroup"></path>
        </g>
    </g>
</svg>